<svg version="1.2" xmlns="http://www.w3.org/2000/svg" viewBox="0 0 900 350" width="900" height="350"><style>.a{fill:#0096ff}.b{fill:#2180d3}.c{fill:#2c6aa8}.d{fill:#2f557f}.e{fill:#2d4059}</style><path fill-rule="evenodd" class="a" d="m0-250h900v600h-900z"/><path class="a" d="m0 82l129-75 128 80 129-76 128 11 129 106 128-45 129-56v324h-129-128-129-128-129-128-129z"/><path class="b" d="m0 161l129-90 128 66 129-69 128 39 129-42 128 28 129-6v264h-129-128-129-128-129-128-129z"/><path class="c" d="m0 126l129 38 128-34 129 26 128 68 129-10 128-69 129 28v178h-129-128-129-128-129-128-129z"/><path class="d" d="m0 213l129 7 128 18 129-20 128 12 129 14 128-54 129 74v87h-129-128-129-128-129-128-129z"/><path class="e" d="m0 273l129-6h128l129 13 128-21 129 19 128-3 129 4v72h-129-128-129-128-129-128-129z"/></svg>