<svg version="1.2" xmlns="http://www.w3.org/2000/svg" viewBox="0 0 900 350" width="900" height="350"><style>.a{fill:#ffd460}.b{fill:#ff9f7e}.c{fill:#ff82b5}.d{fill:#c386e8}.e{fill:#0096ff}</style><path fill-rule="evenodd" class="a" d="m0-250h900v600h-900z"/><path class="a" d="m0-44l129-7 128 127 129 30 128-67 129-54 128 84 129-7v289h-129-128-129-128-129-128-129z"/><path class="b" d="m0 114l129-61 128 35 129-30 128-34 129 66 128-56 129 47v270h-129-128-129-128-129-128-129z"/><path class="c" d="m0 176l129-52 128 53 129-86 128 22 129 79 128-99 129 94v164h-129-128-129-128-129-128-129z"/><path class="d" d="m0 181l129 27 128-30 129-8 128 82 129-76 128-12 129 72v115h-129-128-129-128-129-128-129z"/><path class="e" d="m0 255l129 51 128-2 129-36 128 27 129-41 128 48 129-69v118h-129-128-129-128-129-128-129z"/></svg>